<svg xmlns="http://www.w3.org/2000/svg" width="16" height="16" viewBox="0 0 16 16" fill="none"><rect width="16" height="16" fill="white"></rect><path d="M7.534 14.132C7.138 14.132 6.73833 14.088 6.335 14C5.939 13.912 5.57967 13.791 5.257 13.637C5.13233 13.5783 5.059 13.494 5.037 13.384C5.015 13.2667 5.048 13.1273 5.136 12.966C5.19467 12.8413 5.27167 12.7643 5.367 12.735C5.46233 12.7057 5.56867 12.724 5.686 12.79C5.93533 12.922 6.22867 13.0283 6.566 13.109C6.91067 13.1823 7.25167 13.219 7.589 13.219C7.99967 13.219 8.381 13.1567 8.733 13.032C9.09233 12.9 9.404 12.713 9.668 12.471C9.932 12.229 10.1373 11.9467 10.284 11.624C10.438 11.294 10.515 10.9347 10.515 10.546C10.515 10.1793 10.4453 9.86033 10.306 9.589C10.1667 9.31033 9.95767 9.072 9.679 8.874C9.40767 8.676 9.063 8.52567 8.645 8.423C8.52033 8.49633 8.381 8.55133 8.227 8.588C8.08033 8.62467 7.94833 8.643 7.831 8.643C7.64767 8.643 7.49733 8.59167 7.38 8.489C7.26267 8.38633 7.204 8.26533 7.204 8.126C7.204 8.00133 7.24067 7.89133 7.314 7.796C7.39467 7.69333 7.49733 7.61633 7.622 7.565C7.754 7.50633 7.90067 7.477 8.062 7.477C8.172 7.477 8.28933 7.49167 8.414 7.521C8.546 7.543 8.67067 7.57967 8.788 7.631C9.08133 7.55033 9.35633 7.444 9.613 7.312C9.877 7.18 10.1117 7.02967 10.317 6.861C10.5223 6.685 10.6983 6.49433 10.845 6.289C10.999 6.07633 11.1127 5.85267 11.186 5.618C11.2667 5.38333 11.307 5.14133 11.307 4.892C11.307 4.66467 11.2593 4.46667 11.164 4.298C11.0687 4.122 10.9257 3.98633 10.735 3.891C10.5517 3.79567 10.317 3.748 10.031 3.748C9.71567 3.748 9.38567 3.82133 9.041 3.968C8.70367 4.11467 8.36633 4.32733 8.029 4.606C7.69167 4.88467 7.36533 5.222 7.05 5.618C6.73467 6.014 6.43767 6.45767 6.159 6.949C5.88767 7.433 5.653 7.961 5.455 8.533L3.739 13.846C3.70967 13.9487 3.651 14.0257 3.563 14.077C3.475 14.1283 3.34667 14.154 3.178 14.154C3.01667 14.154 2.89567 14.1283 2.815 14.077C2.73433 14.0257 2.71233 13.9413 2.749 13.824L5.598 5.079C5.41467 5.26233 5.22033 5.43833 5.015 5.607C4.80967 5.77567 4.59333 5.94433 4.366 6.113C4.146 6.27433 3.91133 6.443 3.662 6.619C3.508 6.72167 3.37967 6.75467 3.277 6.718C3.17433 6.68133 3.08267 6.597 3.002 6.465C2.92867 6.34767 2.89933 6.23767 2.914 6.135C2.92867 6.025 3.00567 5.92967 3.145 5.849C3.57767 5.57767 3.97733 5.30267 4.344 5.024C4.718 4.738 5.059 4.441 5.367 4.133C5.675 3.81767 5.94267 3.49133 6.17 3.154C6.258 3.02933 6.33867 2.945 6.412 2.901C6.48533 2.857 6.60267 2.835 6.764 2.835C6.93267 2.835 7.05367 2.86067 7.127 2.912C7.20767 2.96333 7.226 3.04767 7.182 3.165L6.61 4.925C6.88133 4.58767 7.16 4.29067 7.446 4.034C7.73933 3.77733 8.03267 3.561 8.326 3.385C8.62667 3.20167 8.92367 3.066 9.217 2.978C9.51767 2.88267 9.811 2.835 10.097 2.835C10.559 2.835 10.9513 2.91933 11.274 3.088C11.604 3.24933 11.857 3.484 12.033 3.792C12.2163 4.09267 12.308 4.452 12.308 4.87C12.308 5.244 12.2383 5.60333 12.099 5.948C11.9597 6.28533 11.7653 6.597 11.516 6.883C11.2667 7.16167 10.9733 7.4 10.636 7.598C10.306 7.796 9.94667 7.939 9.558 8.027L9.536 8.049C9.954 8.181 10.3097 8.37167 10.603 8.621C10.9037 8.87033 11.131 9.16733 11.285 9.512C11.439 9.84933 11.516 10.2233 11.516 10.634C11.516 11.14 11.4133 11.6057 11.208 12.031C11.0027 12.4563 10.7167 12.8267 10.35 13.142C9.98333 13.4573 9.558 13.703 9.074 13.879C8.59733 14.0477 8.084 14.132 7.534 14.132Z" fill="#C1A540"></path></svg>